<svg width="30" height="30" viewBox="0 0 30 30" fill="none" xmlns="http://www.w3.org/2000/svg">
<g clip-path="url(#clip0)">
<path fill-rule="evenodd" clip-rule="evenodd" d="M22.1677 13.4225H29.5605V15.9906C29.5605 16.6256 29.0423 17.1442 28.4078 17.1442H25.7487L24.1625 17.9455L22.1677 17.1442V13.4225Z" fill="#FFE07D"/>
<path fill-rule="evenodd" clip-rule="evenodd" d="M22.1678 17.1443H25.7487V18.7916C25.7487 19.1872 25.4248 19.5097 25.0312 19.5097H13.3721C13.3721 18.4741 13.3721 17.9471 14.1643 17.9471L15.7422 17.9455C16.7354 17.9439 17.3865 17.6895 17.7503 17.1443H22.1678Z" fill="#6F6571"/>
<path fill-rule="evenodd" clip-rule="evenodd" d="M14.7783 19.5096H25.0312C25.6325 20.5569 26.1158 21.8152 25.6989 24.2221C25.0013 21.8484 17.9158 22.7959 17.1883 25.5353H9.37036C9.0747 24.8654 8.79567 24.2038 8.55151 23.5356H10.7556C15.2134 21.8535 13.7801 22.6031 14.7783 19.5096Z" fill="#FFE07D"/>
<path fill-rule="evenodd" clip-rule="evenodd" d="M14.1455 13.0752C14.2983 13.8798 14.5059 14.6726 14.7384 15.3475L16.9922 16.2305L19.5053 15.3475C19.4173 10.5918 17.6401 8.31112 16.1286 7.57313C15.5838 7.15829 15.0258 7.00208 15.0258 7.00208C15.0258 7.00208 14.2917 8.17653 14.2535 8.17653C13.9711 8.84807 13.8648 9.72411 13.8831 10.6699L14.1455 13.0752Z" fill="#ECEAEC"/>
<path fill-rule="evenodd" clip-rule="evenodd" d="M19.5053 15.3474H14.7385C13.6406 15.4671 12.2903 16.3032 12.2903 18.893V21.6075H14.7783V19.5097C14.7783 18.4741 14.7783 17.9472 15.5706 17.9472L17.1485 17.9455C18.1417 17.9439 18.7928 17.6895 19.1565 17.1443C19.4372 16.7238 19.5452 16.1303 19.5053 15.3474Z" fill="#4CAF50"/>
<path fill-rule="evenodd" clip-rule="evenodd" d="M19.5054 15.3473C19.4174 10.5916 17.6402 8.31099 16.1288 7.573C15.9045 7.73091 15.6554 7.86058 15.3813 7.95696C16.72 8.96929 18.0621 11.2316 18.1385 15.3473H19.5054Z" fill="#DAD8DB"/>
<path fill-rule="evenodd" clip-rule="evenodd" d="M19.5053 15.3474H18.1383C18.1782 16.1303 18.0702 16.7238 17.7895 17.1443C17.5603 17.4884 17.2148 17.7793 16.7415 17.9455H17.1484C18.1416 17.9439 18.7927 17.6895 19.1565 17.1443C19.4371 16.7238 19.5451 16.1303 19.5053 15.3474Z" fill="#3B893F"/>
<path fill-rule="evenodd" clip-rule="evenodd" d="M23.3204 9.6958H28.4078C29.0422 9.6958 29.5604 10.2144 29.5604 10.8494V12.7577H22.1677V10.8494C22.1677 10.2144 22.6859 9.6958 23.3204 9.6958Z" fill="#FFE07D"/>
<path fill-rule="evenodd" clip-rule="evenodd" d="M22.1677 12.1825H29.5605V13.996H22.1677V12.1825Z" fill="#4CAF50"/>
<path fill-rule="evenodd" clip-rule="evenodd" d="M28.0176 12.1825H28.9643H29.5607V10.8494C29.5607 10.4156 29.3181 10.0366 28.9644 9.84041C28.7983 9.749 28.609 9.6958 28.408 9.6958H26.865C27.4994 9.6958 28.0176 10.2144 28.0176 10.8494V12.1825Z" fill="#FFC269"/>
<path fill-rule="evenodd" clip-rule="evenodd" d="M28.0176 13.996H28.9643H29.5606V13.4226V12.7577V12.1825H28.9643H28.0176V12.7577V13.4226V13.996Z" fill="#3B893F"/>
<path fill-rule="evenodd" clip-rule="evenodd" d="M28.0176 13.996V15.9907C28.0176 16.6257 27.4994 17.1443 26.865 17.1443H28.408C28.609 17.1443 28.7983 17.0928 28.9644 17.0013C29.3182 16.8035 29.5607 16.4245 29.5607 15.9907V13.996H28.9644H28.0176Z" fill="#FFC269"/>
<path fill-rule="evenodd" clip-rule="evenodd" d="M17.1882 25.5354C17.1882 23.0769 19.1365 21.1188 21.5399 21.1188C23.4948 21.1188 25.1491 22.4153 25.6989 24.2222C25.8118 24.5929 25.8782 24.9868 25.8899 25.3958C25.8949 25.5553 25.7852 25.5354 25.6358 25.5354C22.8204 25.5354 20.0035 25.5337 17.1882 25.5354Z" fill="#4CAF50"/>
<path fill-rule="evenodd" clip-rule="evenodd" d="M18.283 25.5354H24.9067C24.8121 27.3206 23.3654 28.7402 21.5949 28.7402C19.8243 28.7402 18.3776 27.3206 18.283 25.5354Z" fill="#6F6571"/>
<path fill-rule="evenodd" clip-rule="evenodd" d="M1.46257 24.8289L7.16122 26.1404C6.79911 27.7145 5.22956 28.6986 3.65667 28.3362C2.08208 27.9738 1.10052 26.403 1.46257 24.8289Z" fill="#6F6571"/>
<path fill-rule="evenodd" clip-rule="evenodd" d="M1.03589 23.2315C1.84144 22.0596 3.23995 21.3798 4.70157 21.526C7.27935 22.0712 8.11811 23.6121 8.28587 25.5337C8.28253 25.7947 8.25429 26.0573 8.19786 26.32C8.18128 26.3931 8.13306 26.3632 8.05337 26.3449L7.16145 26.1405L1.4628 24.829L1.03595 24.7309L0.439697 24.5929C0.554248 24.0909 0.760205 23.6321 1.03589 23.2315Z" fill="#ECEAEC"/>
<path fill-rule="evenodd" clip-rule="evenodd" d="M4.69653 21.5194L6.99856 13.5539L8.03497 13.0901L9.19431 13.5539C7.67122 17.776 8.09643 20.7232 9.12452 23.5357C9.37032 24.2039 9.64934 24.8655 9.94337 25.5354H8.28745L4.69653 21.5194Z" fill="#4CAF50"/>
<path fill-rule="evenodd" clip-rule="evenodd" d="M11.8252 4.62252L14.5259 4.04736C14.7999 4.07232 15.5839 4.73057 15.5839 5.14277L15.0092 8.06502C14.7701 8.13651 14.5159 8.17641 14.2535 8.17641C12.8151 8.17641 11.6492 7.00787 11.6492 5.56834C11.6492 5.23418 11.7106 4.91502 11.8252 4.62252Z" fill="#FFECE4"/>
<path fill-rule="evenodd" clip-rule="evenodd" d="M10.9531 4.62264C10.9531 2.76422 12.4247 1.25989 14.2418 1.25989C16.0588 1.25989 17.5304 2.76422 17.5304 4.62264C17.5304 5.84936 17.0321 6.93985 16.1286 7.57313C15.8064 7.80088 15.431 7.96875 15.0092 8.06514V5.14289C15.0092 4.73063 14.7999 4.64754 14.5258 4.62258H11.8252H10.9531V4.62264Z" fill="#4CAF50"/>
<path fill-rule="evenodd" clip-rule="evenodd" d="M12.5212 1.75688C13.0212 1.44106 13.6108 1.25989 14.242 1.25989C16.059 1.25989 17.5306 2.76422 17.5306 4.62264C17.5306 5.84936 17.0323 6.93985 16.1288 7.57313C15.8996 7.73438 15.6455 7.86569 15.3664 7.96207C16.0341 7.28555 16.3962 6.31477 16.3962 5.24426C16.3962 3.30276 14.8566 1.72858 12.9581 1.72858C12.8102 1.72864 12.6641 1.73696 12.5212 1.75688Z" fill="#3B893F"/>
<path fill-rule="evenodd" clip-rule="evenodd" d="M12.2902 21.6074H14.7783V23.1749C14.7783 23.5107 14.5956 23.5356 14.3265 23.5356H10.7555C10.6841 21.9631 11.6358 21.6074 12.2902 21.6074Z" fill="#6F6571"/>
<path fill-rule="evenodd" clip-rule="evenodd" d="M9.1245 23.5357C8.09642 20.7231 7.6712 17.776 9.19429 13.5538H8.34058C8.33724 13.5538 8.33396 13.5538 8.33062 13.5538H8.02335C6.50026 17.776 6.92384 20.7231 7.95357 23.5357C8.19773 24.2039 8.47675 24.8655 8.77241 25.5354H9.37036H9.94341C9.64939 24.8655 9.37036 24.2039 9.1245 23.5357Z" fill="#3B893F"/>
<path fill-rule="evenodd" clip-rule="evenodd" d="M8.28566 25.5337L4.70136 21.526C4.33099 21.4894 3.9639 21.5044 3.61011 21.5692L7.05489 25.4207C7.05155 25.6451 7.02999 25.8728 6.98681 26.1005L7.16118 26.1404L8.0531 26.3449C8.13284 26.3632 8.18101 26.3931 8.19759 26.3199C8.25413 26.0573 8.28238 25.7947 8.28566 25.5337Z" fill="#DAD8DB"/>
<path fill-rule="evenodd" clip-rule="evenodd" d="M25.0312 19.5096H14.7783V20.4122H23.2025C23.8885 20.4122 24.214 20.7081 24.4814 21.3082C24.7123 21.8285 24.7173 21.998 24.8219 22.6264C25.2156 23.0835 25.5179 23.6254 25.6989 24.2221C26.1157 21.8152 25.6325 20.5569 25.0312 19.5096Z" fill="#FFC269"/>
<path fill-rule="evenodd" clip-rule="evenodd" d="M24.822 22.6264C24.0248 21.7006 22.8505 21.1188 21.54 21.1188C21.2111 21.1188 20.8922 21.1553 20.585 21.2235C22.5465 21.6673 23.9184 23.3994 23.9782 25.3958C23.9816 25.5054 23.9317 25.5304 23.852 25.5354H24.9067H25.6359C25.7853 25.5354 25.895 25.5553 25.89 25.3958C25.8784 24.9868 25.8119 24.5929 25.699 24.2222C25.6956 24.2105 25.6923 24.2006 25.689 24.1906C25.689 24.1906 25.689 24.1906 25.689 24.189C25.5063 23.6055 25.2089 23.0752 24.822 22.6264Z" fill="#3B893F"/>
<path fill-rule="evenodd" clip-rule="evenodd" d="M6.98682 26.1005L1.4626 24.8289C1.40114 25.0898 1.37957 25.3525 1.38954 25.6084L5.7744 26.6174L5.94713 26.6573C5.78436 27.3721 5.37081 27.9655 4.82102 28.3661C5.94215 28.1683 6.89055 27.3206 7.16125 26.1404L6.98682 26.1005Z" fill="#5D5360"/>
<path fill-rule="evenodd" clip-rule="evenodd" d="M23.8518 25.5354H18.2827C18.301 25.8844 18.3724 26.2202 18.487 26.5344H22.3669H23.4216C23.3801 27.3157 23.0811 28.0255 22.6095 28.579C23.89 28.1585 24.8318 26.9633 24.9065 25.5354H23.8518Z" fill="#5D5360"/>
<path fill-rule="evenodd" clip-rule="evenodd" d="M25.7488 18.7916V17.1443H23.4983V18.7916C23.4983 19.1872 23.1744 19.5097 22.7808 19.5097H25.0313C25.4249 19.5097 25.7488 19.1872 25.7488 18.7916Z" fill="#5D5360"/>
<path fill-rule="evenodd" clip-rule="evenodd" d="M11.6624 5.28918H13.8814C14.1554 5.31414 14.3647 5.39887 14.3647 5.81113V8.17323C14.5872 8.16326 14.8032 8.1267 15.0091 8.06518V5.14287C15.0091 4.73061 14.7998 4.64752 14.5258 4.62256H11.8251C11.7437 4.83203 11.6873 5.05645 11.6624 5.28918Z" fill="#FFDDCE"/>
<path fill-rule="evenodd" clip-rule="evenodd" d="M6.51846 11.0455L9.62603 12.0728C9.77884 12.2091 9.60611 13.5987 9.5031 13.5538H6.99846H5.89062V11.2666C5.89062 10.8161 6.12482 10.9158 6.51846 11.0455Z" fill="#FFE07D"/>
<path fill-rule="evenodd" clip-rule="evenodd" d="M11.0744 13.5539H10.8137H9.50325C8.6595 13.5539 8.6346 12.1542 9.62618 12.0728L11.0745 11.9564L11.4632 12.7793L11.0744 13.5539Z" fill="#FFECE4"/>
<path fill-rule="evenodd" clip-rule="evenodd" d="M13.8832 10.6697L14.403 10.2226C15.7052 9.10061 17.3512 10.9939 15.6105 12.1242L14.1455 13.075L13.4081 13.5537H11.0745V11.9563L12.5244 11.8383L13.8832 10.6697Z" fill="#4CAF50"/>
<path fill-rule="evenodd" clip-rule="evenodd" d="M11.0745 13.5538V12.7792H10.7639H10.5961H10.3337H9.02321C8.97341 12.7792 8.92688 12.7758 8.88206 12.7659C8.8339 13.1515 9.05145 13.5538 9.50327 13.5538H10.8137H11.0745Z" fill="#FFDDCE"/>
<path fill-rule="evenodd" clip-rule="evenodd" d="M15.6104 12.1243C16.6635 11.4395 16.4774 10.477 15.8779 10.0714C15.926 10.487 15.7284 10.964 15.1304 11.3513L13.9894 12.091L13.6672 12.3021L12.9297 12.7792H11.0745V13.5538H13.4081L14.1455 13.0751L15.6104 12.1243Z" fill="#3B893F"/>
<path fill-rule="evenodd" clip-rule="evenodd" d="M9.62603 12.0728L8.37535 11.6605C7.95681 12.1094 7.75414 12.9837 8.02326 13.5538H9.1942H9.5031C9.05134 13.5538 8.83373 13.1516 8.88189 12.7659C8.92513 12.4319 9.16595 12.111 9.62603 12.0728Z" fill="#FFC269"/>
<path d="M28.4078 9.25629H23.3204C22.4425 9.25629 21.7283 9.9709 21.7283 10.8493V16.7048H19.8254C19.9311 16.3204 19.9703 15.867 19.9446 15.3393V15.3392C19.9033 13.1092 19.4986 11.2297 18.7418 9.75305C18.1541 8.60654 17.4683 7.91918 16.8797 7.50826C17.5705 6.79805 17.9699 5.78771 17.9699 4.62246C17.9699 2.52592 16.2974 0.820312 14.2418 0.820312C12.1862 0.820312 10.5137 2.52592 10.5137 4.62246C10.5137 4.86521 10.7105 5.06191 10.9532 5.06191H11.2518C11.2243 5.22773 11.2096 5.39672 11.2096 5.56834C11.2096 7.04584 12.2654 8.2807 13.6612 8.55744C13.5149 9.10072 13.4422 9.74133 13.4425 10.4691L12.3464 11.4118L9.67951 11.6275L6.60316 10.6105C6.32121 10.5168 6.00164 10.4108 5.72437 10.6107C5.45115 10.8079 5.45115 11.1531 5.45115 11.2665V13.5537C5.45115 13.7964 5.64791 13.9931 5.8906 13.9931H6.41379L5.61135 16.766C5.54391 16.9991 5.6782 17.2428 5.91135 17.3103C6.14461 17.3781 6.38818 17.2434 6.45568 17.0103L7.32885 13.9931H8.57818C7.02428 18.7317 7.91092 21.8947 9.27375 25.0958H8.48379L5.19357 21.4169L5.88932 19.0134C5.95682 18.7802 5.82252 18.5365 5.58937 18.4691C5.35623 18.4017 5.11254 18.536 5.04504 18.769L4.37959 21.0681C2.32143 21.0337 0.480411 22.4528 0.0112506 24.4944C-0.0430657 24.7308 0.104532 24.9666 0.340958 25.021L0.964805 25.1645C0.80543 26.8199 1.89557 28.3818 3.55811 28.7644C3.81059 28.8226 4.06523 28.8513 4.31812 28.8513C4.9418 28.8513 5.55451 28.6765 6.09644 28.3368C6.73248 27.9383 7.20639 27.3523 7.46285 26.6599L7.9551 26.7731C8.10176 26.807 8.24086 26.8242 8.37984 26.7494C8.50916 26.6798 8.59512 26.5541 8.62734 26.4122C8.65828 26.2684 8.68184 26.1222 8.69818 25.9747H17.8891C18.183 27.802 19.7378 29.1795 21.5947 29.1795C23.4516 29.1795 25.0064 27.802 25.3003 25.9747H25.6357L25.6745 25.9751C25.6879 25.9753 25.7023 25.9754 25.7174 25.9754C25.8431 25.9754 26.0246 25.9615 26.1736 25.8098C26.2482 25.734 26.3358 25.5982 26.329 25.3825C26.3167 24.9698 26.2547 24.5711 26.149 24.1921C26.4991 22.067 26.1623 20.7728 25.663 19.7599C25.9786 19.553 26.1879 19.1965 26.1879 18.7915V17.5837H28.4077C29.2856 17.5837 29.9998 16.8691 29.9998 15.9906V10.8493C30 9.9709 29.2858 9.25629 28.4078 9.25629ZM5.62975 27.5922C5.06719 27.9448 4.40156 28.0569 3.75539 27.9081H3.75533C2.566 27.6343 1.77252 26.5437 1.83035 25.3645L6.59713 26.4616C6.3999 26.9259 6.06621 27.3187 5.62975 27.5922ZM7.82865 25.8422L0.992813 24.2692C1.52033 22.8247 2.93994 21.8684 4.49168 21.9507L7.84037 25.6949C7.83744 25.7443 7.83357 25.7934 7.82865 25.8422ZM14.4664 18.1843C14.3389 18.5208 14.3389 18.9356 14.3389 19.5097V21.168H12.7297V18.893C12.7297 16.3208 14.1335 15.8624 14.7635 15.7868H19.0719C19.0545 16.3706 18.9228 16.7855 18.6727 17.0489C18.3813 17.3558 17.8826 17.5053 17.148 17.5061L15.5706 17.5077C15.0081 17.5078 14.6367 17.7353 14.4664 18.1843ZM14.3389 22.0469V23.0962C14.3349 23.0962 14.3308 23.0962 14.3266 23.0962H11.2051C11.2402 22.7708 11.3416 22.5189 11.508 22.3447C11.7557 22.0856 12.1044 22.0469 12.2903 22.0469H14.3389ZM19.0525 14.9079H15.056C14.8955 14.4029 14.7524 13.8499 14.6347 13.2816L15.8498 12.4929C16.5131 12.0622 16.8581 11.4536 16.7965 10.823C16.7419 10.2641 16.3619 9.76482 15.8285 9.55113C15.3413 9.35601 14.817 9.4173 14.3535 9.71361C14.3917 9.29326 14.4629 8.91803 14.5658 8.59951C14.7531 8.58017 14.9391 8.54355 15.1218 8.48982C15.4937 8.40346 15.8374 8.26582 16.1476 8.0833C16.994 8.58896 18.8555 10.2291 19.0525 14.9079ZM11.4248 4.18307C11.632 2.77893 12.8163 1.69928 14.2418 1.69928C15.8128 1.69928 17.091 3.01066 17.091 4.62252C17.091 5.9335 16.4623 6.99012 15.4487 7.45512V5.14283C15.4487 4.74246 15.2954 4.25133 14.5657 4.18488C14.5525 4.18365 14.5392 4.18307 14.5259 4.18307H11.4248ZM12.0886 5.5684C12.0886 5.39496 12.1083 5.22557 12.1472 5.06197H14.5043C14.5314 5.0649 14.5512 5.06807 14.5654 5.07094C14.5677 5.08723 14.5697 5.11066 14.5697 5.14283V7.71369C14.465 7.7291 14.3596 7.73689 14.2543 7.73695C14.2533 7.73695 14.2523 7.73695 14.2514 7.73695C13.0587 7.73584 12.0886 6.76348 12.0886 5.5684ZM11.5189 12.3606L12.5597 12.2764C12.6525 12.2689 12.7404 12.2322 12.8111 12.1716L14.6896 10.5558L14.6899 10.5555C14.8715 10.399 15.0654 10.3188 15.2542 10.3188C15.3382 10.3188 15.4212 10.3347 15.5017 10.3669C15.7339 10.4599 15.8988 10.6725 15.9219 10.9084C15.9509 11.2053 15.7553 11.5062 15.3713 11.7556L13.278 13.1143H11.519V12.3606H11.5189ZM9.6617 12.5108L10.64 12.4317V13.1144H9.5032C9.35584 13.1144 9.31992 12.9919 9.3157 12.8892C9.3133 12.831 9.31881 12.5389 9.6617 12.5108ZM8.6216 12.2074C8.48924 12.4245 8.42742 12.6783 8.43756 12.9252C8.4402 12.9891 8.44834 13.0507 8.45971 13.1107C8.45971 13.1119 8.459 13.1132 8.45924 13.1143H6.33018V11.446L8.6233 12.204C8.6226 12.2052 8.62225 12.2063 8.6216 12.2074ZM9.50566 13.9932H13.4081C13.493 13.9932 13.5761 13.9686 13.6473 13.9224L13.8462 13.7933C13.9419 14.2162 14.0509 14.6278 14.1696 15.0165C13.2734 15.281 11.8508 16.136 11.8508 18.8929V21.2121C11.5424 21.2743 11.1777 21.4181 10.8726 21.7374C10.551 22.074 10.3673 22.53 10.3232 23.0961H9.4367C8.54338 20.5216 8.20365 17.782 9.50566 13.9932ZM10.23 25.0943C10.0676 24.7208 9.91102 24.3486 9.76359 23.9751H14.3265C14.9179 23.9751 15.2177 23.7059 15.2177 23.1749V21.6074V19.9491H18.6864C18.9292 19.9491 19.1259 19.7524 19.1259 19.5097C19.1259 19.2669 18.9292 19.0702 18.6864 19.0702H15.2209C15.2265 18.8206 15.2425 18.6165 15.2883 18.4959C15.3105 18.4372 15.3297 18.3866 15.5711 18.3866L17.1489 18.385C18.137 18.384 18.844 18.145 19.3101 17.6541C19.3317 17.6313 19.352 17.6075 19.3725 17.5837H22.1678H25.3093V18.7915C25.3093 18.9426 25.182 19.0702 25.0312 19.0702H20.6563C20.4136 19.0702 20.2169 19.2669 20.2169 19.5097C20.2169 19.7524 20.4136 19.9491 20.6563 19.9491H24.773C25.1204 20.5938 25.4328 21.396 25.4142 22.6635C24.5448 21.4558 23.1373 20.6793 21.5399 20.6793C20.2571 20.6793 19.0533 21.1825 18.1503 22.0962C17.3491 22.907 16.8678 23.9593 16.7688 25.0958L10.23 25.0943ZM21.5947 28.3007C20.2209 28.3007 19.0623 27.3109 18.782 25.9748H24.4075C24.1271 27.3108 22.9685 28.3007 21.5947 28.3007ZM24.9067 25.0959H18.2829H17.6515C17.8673 23.1088 19.5288 21.5582 21.5399 21.5582C23.3057 21.5582 24.7885 22.7225 25.2796 24.3524C25.2811 24.3575 25.2827 24.3627 25.2845 24.3678C25.3539 24.6016 25.403 24.845 25.4295 25.0959H24.9067ZM29.1211 15.9907C29.1211 16.3845 28.8011 16.7048 28.4078 16.7048H22.6072V14.4354H29.1211V15.9907ZM29.1211 13.5565H22.6072V12.6219H29.1211V13.5565ZM29.1211 11.743H22.6072V10.8493C22.6072 10.4555 22.9271 10.1352 23.3204 10.1352H28.4078C28.8011 10.1352 29.1211 10.4556 29.1211 10.8493V11.743Z" fill="black"/>
</g>
<defs>
<clipPath id="clip0">
<rect width="30" height="30" fill="white"/>
</clipPath>
</defs>
</svg>
