<svg width="15" height="15" viewBox="0 0 15 15" fill="none" xmlns="http://www.w3.org/2000/svg">
<g clip-path="url(#clip0)">
<path d="M5.41026 12.0605C5.30597 12.08 5.26041 12.1289 5.27347 12.207C5.28647 12.285 5.34506 12.3111 5.44922 12.285C5.5535 12.2591 5.59903 12.2134 5.58593 12.1483C5.573 12.0768 5.51441 12.0474 5.41026 12.0605Z" fill="white"/>
<path d="M4.85358 12.1387C4.74939 12.1387 4.69733 12.1743 4.69733 12.2461C4.69733 12.3307 4.75271 12.3664 4.86333 12.3534C4.96751 12.3534 5.01964 12.3176 5.01964 12.2461C5.01964 12.1616 4.96426 12.1256 4.85358 12.1387Z" fill="white"/>
<path d="M4.09187 12.1093C4.06587 12.1809 4.10822 12.2296 4.2188 12.2558C4.31645 12.2947 4.37833 12.2752 4.40432 12.1972C4.42389 12.1257 4.38154 12.0737 4.27739 12.0409C4.1797 12.015 4.1179 12.0374 4.09187 12.1093Z" fill="white"/>
<path d="M14.1748 0.825119C13.6246 0.275074 12.9624 0 12.1874 0H2.81248C2.03781 0 1.3753 0.275074 0.82512 0.825119C0.275074 1.37527 0 2.03778 0 2.81248V12.1876C0 12.9623 0.275074 13.6248 0.82512 14.1748C1.37527 14.7249 2.03781 15 2.81248 15H4.99998C5.14309 15 5.2506 14.9951 5.32219 14.9855C5.39374 14.9757 5.4653 14.9333 5.53696 14.8584C5.60865 14.7836 5.64436 14.6745 5.64436 14.5313C5.64436 14.5119 5.64265 14.2903 5.63943 13.8672C5.63612 13.4439 5.63451 13.1086 5.63451 12.8612L5.40989 12.9003C5.26667 12.9263 5.086 12.9377 4.86788 12.9345C4.64986 12.9312 4.42356 12.9085 4.18922 12.8661C3.95475 12.8237 3.73673 12.7261 3.53489 12.5733C3.33315 12.4201 3.18993 12.22 3.10528 11.9727L3.00759 11.7479C2.9425 11.5983 2.84002 11.4322 2.70002 11.2501C2.56002 11.0677 2.41844 10.944 2.27523 10.8789L2.20685 10.8301C2.16133 10.7975 2.11902 10.7583 2.07992 10.7128C2.04089 10.6671 2.01161 10.6215 1.99208 10.5761C1.97255 10.5304 1.98876 10.4929 2.04089 10.4636C2.09302 10.4343 2.18732 10.4198 2.32411 10.4198L2.51935 10.4491C2.6496 10.475 2.81064 10.5531 3.0028 10.6834C3.19482 10.8136 3.35268 10.9828 3.4764 11.1911C3.62621 11.4581 3.80671 11.6614 4.0184 11.8014C4.22993 11.9415 4.44319 12.0115 4.658 12.0115C4.8728 12.0115 5.05833 11.9952 5.21465 11.9628C5.37079 11.9302 5.51729 11.8812 5.65407 11.8161C5.71267 11.38 5.8722 11.0445 6.13253 10.8102C5.76148 10.7711 5.42784 10.7126 5.13153 10.6344C4.83538 10.5562 4.52935 10.4293 4.21364 10.2535C3.8978 10.0777 3.63579 9.8597 3.42745 9.59913C3.21914 9.33856 3.04819 8.99679 2.91482 8.57375C2.78139 8.15046 2.71466 7.66212 2.71466 7.10879C2.71466 6.32109 2.97191 5.65041 3.48621 5.09708C3.24528 4.50465 3.26802 3.84067 3.55452 3.10493C3.74333 3.0463 4.02333 3.09029 4.39438 3.23679C4.7655 3.38339 5.03723 3.50875 5.20982 3.61277C5.38242 3.71682 5.52071 3.80479 5.6249 3.87648C6.23049 3.70721 6.85545 3.62258 7.49993 3.62258C8.14438 3.62258 8.76944 3.70721 9.37507 3.87648L9.74616 3.64211C10.0002 3.4858 10.2996 3.34258 10.6447 3.21244C10.9897 3.08225 11.2534 3.04641 11.4357 3.10503C11.7286 3.84078 11.7548 4.50476 11.5137 5.09715C12.028 5.65054 12.2853 6.3212 12.2853 7.1089C12.2853 7.66233 12.2186 8.15231 12.0851 8.57864C11.9518 9.00507 11.7794 9.34698 11.5676 9.60413C11.3561 9.86131 11.0924 10.0776 10.7767 10.2535C10.4609 10.4292 10.1549 10.5564 9.85862 10.6343C9.56237 10.7125 9.22878 10.7713 8.85769 10.8104C9.19601 11.1032 9.36525 11.5653 9.36525 12.1969V14.531C9.36525 14.6417 9.3814 14.7312 9.41396 14.7995C9.44673 14.8679 9.49872 14.915 9.57031 14.9412C9.64221 14.9672 9.70538 14.9834 9.76086 14.9899C9.81634 14.9964 9.89594 14.9997 10.0001 14.9997H12.1876C12.9623 14.9997 13.6248 14.7246 14.1747 14.1745C14.7249 13.6243 15 12.9618 15 12.1871V2.81248C14.9999 2.03778 14.7248 1.37516 14.1748 0.825119Z" fill="white"/>
<path d="M2.96872 10.9179C2.9232 10.9504 2.9297 11.0025 2.98829 11.0741C3.05348 11.1391 3.10551 11.149 3.1446 11.1033C3.19013 11.0709 3.18363 11.0188 3.12494 10.947C3.05988 10.8886 3.00782 10.8787 2.96872 10.9179Z" fill="white"/>
<path d="M2.64656 10.6738C2.62707 10.7195 2.64985 10.7586 2.71494 10.791C2.76696 10.8237 2.80941 10.8173 2.84187 10.7716C2.86137 10.7259 2.83859 10.6868 2.7735 10.6542C2.7084 10.6346 2.66609 10.6412 2.64656 10.6738Z" fill="white"/>
<path d="M3.27155 11.2989C3.21289 11.3313 3.21289 11.3901 3.27155 11.4746C3.33015 11.5594 3.38539 11.5821 3.43755 11.543C3.49618 11.4973 3.49618 11.4355 3.43755 11.3573C3.38552 11.2729 3.33015 11.2531 3.27155 11.2989Z" fill="white"/>
<path d="M3.61342 11.7381C3.55479 11.7903 3.56772 11.8519 3.65248 11.9238C3.7305 12.0018 3.79562 12.0116 3.84772 11.9529C3.89984 11.9009 3.88681 11.8391 3.80866 11.7675C3.73064 11.6895 3.66551 11.6796 3.61342 11.7381Z" fill="white"/>
</g>
<defs>
<clipPath id="clip0">
<rect width="15" height="15" fill="white"/>
</clipPath>
</defs>
</svg>
